<?xml version="1.0" encoding="UTF-8" standalone="no"?>
<svg
   width="512"
   height="512"
   viewBox="0 0 512 512"
   fill="none"
   version="1.1"
   id="svg452"
   sodipodi:docname="logo.svg"
   inkscape:version="1.2 (dc2aedaf03, 2022-05-15)"
   inkscape:export-filename="logo.png"
   inkscape:export-xdpi="96"
   inkscape:export-ydpi="96"
   xmlns:inkscape="http://www.inkscape.org/namespaces/inkscape"
   xmlns:sodipodi="http://sodipodi.sourceforge.net/DTD/sodipodi-0.dtd"
   xmlns="http://www.w3.org/2000/svg"
   xmlns:svg="http://www.w3.org/2000/svg">
  <defs
     id="defs456" />
  <sodipodi:namedview
     id="namedview454"
     pagecolor="#ffffff"
     bordercolor="#000000"
     borderopacity="0.25"
     inkscape:showpageshadow="2"
     inkscape:pageopacity="0.0"
     inkscape:pagecheckerboard="true"
     inkscape:deskcolor="#d1d1d1"
     showgrid="false"
     inkscape:window-width="1920"
     inkscape:window-height="1017"
     inkscape:window-x="1272"
     inkscape:window-y="-8"
     inkscape:window-maximized="1"
     inkscape:current-layer="svg452"
     showguides="true" />
  <rect
     x="10"
     y="266"
     width="492"
     height="180"
     fill="#FF1040"
     stroke="#343040"
     stroke-width="4"
     stroke-linejoin="round"
     id="rect438"
     inkscape:label="base" />
  <path
     d="M56 150C55.218 150 54.5077 150.456 54.1819 151.167L10.1819 247.167C9.89808 247.786 9.94891 248.507 10.3168 249.08C10.6846 249.653 11.3189 250 12 250H500C500.681 250 501.315 249.653 501.683 249.08C502.051 248.507 502.102 247.786 501.818 247.167L457.818 151.167C457.492 150.456 456.782 150 456 150H56Z"
     fill="#FF1040"
     stroke="#343040"
     stroke-width="4"
     stroke-linejoin="round"
     id="path440"
     style="fill:#e71845;fill-opacity:1"
     inkscape:label="lid" />
  <rect
     x="52"
     y="220"
     width="36"
     height="76"
     fill="white"
     stroke="#343040"
     stroke-width="4"
     id="rect442"
     inkscape:label="hinge_l" />
  <rect
     x="424"
     y="220"
     width="36"
     height="76"
     fill="white"
     stroke="#343040"
     stroke-width="4"
     id="rect444"
     inkscape:label="hinge_r" />
  <path
     d="M142 148V150H144H176H178V148V118H334V148V150H336H368H370V148V84V82H368H144H142V84V148Z"
     fill="#D8D8D8"
     stroke="#343040"
     stroke-width="4"
     id="path450"
     inkscape:label="handle" />
  <text
     xml:space="preserve"
     style="font-style:normal;font-variant:normal;font-weight:900;font-stretch:normal;font-size:96px;font-family:Inter;-inkscape-font-specification:'Inter Heavy';text-align:center;letter-spacing:4px;text-anchor:middle;display:none;fill:#ffffff;fill-opacity:1;stroke:#343040;stroke-width:4;stroke-dasharray:none;stroke-opacity:1;paint-order:markers fill stroke"
     x="255.99997"
     y="398.90872"
     id="text1334"><tspan
       sodipodi:role="line"
       id="tspan1332"
       x="257.99997"
       y="398.90872"
       dx="0 0 0 0.1">TOOLKIT</tspan></text>
</svg>
